<svg width="90" height="28" viewBox="0 0 90 28" fill="none" xmlns="http://www.w3.org/2000/svg">
<g clip-path="url(#clip0_3_2634)">
<path d="M4.86328 5.4375H5.76172H12.4023C12.7669 5.45052 13.0664 5.58724 13.3008 5.84766C13.5482 6.10807 13.6719 6.42057 13.6719 6.78516C13.6068 7.56641 13.1836 7.98958 12.4023 8.05469H5.52734C5.03255 8.08073 4.6224 8.26953 4.29688 8.62109C3.97135 8.97266 3.73047 9.3763 3.57422 9.83203C3.43099 10.2747 3.35938 10.7305 3.35938 11.1992C3.35938 11.668 3.43099 12.1302 3.57422 12.5859C3.73047 13.0286 3.97135 13.4258 4.29688 13.7773C4.6224 14.1289 5.03255 14.3177 5.52734 14.3438H12.4023C12.7669 14.3568 13.0664 14.4935 13.3008 14.7539C13.5482 15.0143 13.6719 15.3268 13.6719 15.6914C13.6589 16.043 13.5286 16.3424 13.2812 16.5898C13.0469 16.8242 12.7539 16.9479 12.4023 16.9609H5.23438H4.86328C3.95182 16.9089 3.19661 16.5638 2.59766 15.9258C2.01172 15.2747 1.58854 14.5391 1.32812 13.7188C1.08073 12.8984 0.957031 12.0586 0.957031 11.1992C0.957031 10.3398 1.08724 9.5 1.34766 8.67969C1.60807 7.85938 2.03125 7.13021 2.61719 6.49219C3.20312 5.84115 3.95182 5.48958 4.86328 5.4375ZM13.6328 11.1211C13.6328 11.4857 13.5026 11.7917 13.2422 12.0391C12.9948 12.2995 12.6888 12.4297 12.3242 12.4297H6.42578C6.0612 12.4297 5.7487 12.306 5.48828 12.0586C5.24089 11.7982 5.11719 11.4857 5.11719 11.1211C5.11719 10.7565 5.24089 10.444 5.48828 10.1836C5.7487 9.9362 6.0612 9.8125 6.42578 9.8125H12.3242C12.6888 9.8125 12.9948 9.94271 13.2422 10.2031C13.5026 10.4505 13.6328 10.7565 13.6328 11.1211ZM28.2617 6.74609C28.2617 7.11068 28.1315 7.41667 27.8711 7.66406C27.6237 7.92448 27.3177 8.05469 26.9531 8.05469H19.1406C18.8932 8.06771 18.6849 8.1263 18.5156 8.23047C18.3594 8.32161 18.2422 8.43229 18.1641 8.5625C18.0859 8.67969 18.0469 8.80339 18.0469 8.93359C18.0469 9.0638 18.0859 9.19401 18.1641 9.32422C18.2422 9.44141 18.3594 9.55208 18.5156 9.65625C18.6849 9.7474 18.8932 9.79948 19.1406 9.8125H24.6875C25.599 9.83854 26.3477 10.0534 26.9336 10.457C27.5326 10.8477 27.9557 11.3034 28.2031 11.8242C28.4635 12.332 28.5938 12.8529 28.5938 13.3867C28.5938 13.9076 28.4635 14.4284 28.2031 14.9492C27.9427 15.457 27.5195 15.9128 26.9336 16.3164C26.3477 16.707 25.599 16.9023 24.6875 16.9023H24.5703C24.4922 16.9154 24.4141 16.9219 24.3359 16.9219H16.9531C16.5885 16.9219 16.276 16.7982 16.0156 16.5508C15.7682 16.2904 15.6445 15.9779 15.6445 15.6133C15.6445 15.2487 15.7747 14.9427 16.0352 14.6953C16.2826 14.4349 16.5885 14.3047 16.9531 14.3047H24.8047C25.0521 14.3177 25.2539 14.2721 25.4102 14.168C25.5794 14.0638 25.7031 13.9466 25.7812 13.8164C25.8594 13.6732 25.8984 13.5299 25.8984 13.3867C25.8984 13.2956 25.8594 13.1719 25.7812 13.0156C25.7031 12.8464 25.5794 12.7096 25.4102 12.6055C25.2539 12.5013 25.0521 12.4427 24.8047 12.4297H19.2578C18.3464 12.4036 17.5911 12.1953 16.9922 11.8047C16.4062 11.4141 15.9831 10.9714 15.7227 10.4766C15.4753 9.96875 15.3516 9.45443 15.3516 8.93359C15.3516 8.42578 15.4818 7.92448 15.7422 7.42969C16.0026 6.92188 16.4258 6.47266 17.0117 6.08203C17.5977 5.69141 18.3464 5.48307 19.2578 5.45703H19.375C19.4531 5.44401 19.5312 5.4375 19.6094 5.4375H26.9531C27.3177 5.4375 27.6237 5.56771 27.8711 5.82812C28.1315 6.07552 28.2617 6.38151 28.2617 6.74609ZM39.2578 5.4375C40.1693 5.48958 40.918 5.84115 41.5039 6.49219C42.0898 7.13021 42.513 7.85938 42.7734 8.67969C43.0339 9.5 43.1641 10.3398 43.1641 11.1992C43.1641 12.0586 43.0339 12.8984 42.7734 13.7188C42.526 14.5391 42.1029 15.2747 41.5039 15.9258C40.918 16.5638 40.1693 16.9089 39.2578 16.9609H32.0703C31.7188 16.9479 31.4193 16.8242 31.1719 16.5898C30.9375 16.3424 30.8138 16.043 30.8008 15.6914V10.8477C30.8138 10.4831 30.9505 10.1836 31.2109 9.94922C31.4714 9.70182 31.7839 9.57812 32.1484 9.57812C32.5 9.59115 32.7995 9.72135 33.0469 9.96875C33.2943 10.2031 33.4245 10.4961 33.4375 10.8477V13.8164C33.4375 14.168 33.6198 14.3438 33.9844 14.3438H38.5938C39.0885 14.3177 39.4987 14.1289 39.8242 13.7773C40.1497 13.4258 40.3841 13.0286 40.5273 12.5859C40.6836 12.1302 40.7617 11.668 40.7617 11.1992C40.7617 10.7305 40.6836 10.2747 40.5273 9.83203C40.3841 9.3763 40.1497 8.97266 39.8242 8.62109C39.4987 8.26953 39.0885 8.08073 38.5938 8.05469H32.0703C31.2891 7.98958 30.8659 7.56641 30.8008 6.78516C30.8008 6.42057 30.918 6.10807 31.1523 5.84766C31.3997 5.58724 31.7057 5.45052 32.0703 5.4375H39.2578ZM44.9219 6.74609C44.9219 6.38151 45.0456 6.07552 45.293 5.82812C45.5534 5.56771 45.8659 5.4375 46.2305 5.4375H57.5977C57.9622 5.4375 58.2747 5.5612 58.5352 5.80859C58.7826 6.06901 58.9062 6.38151 58.9062 6.74609C58.9062 7.11068 58.776 7.42318 58.5156 7.68359C58.2682 7.93099 57.9622 8.05469 57.5977 8.05469H53.2422V15.9648C53.1641 16.7461 52.7344 17.1693 51.9531 17.2344C51.5885 17.2344 51.2695 17.1172 50.9961 16.8828C50.7357 16.6354 50.6055 16.3294 50.6055 15.9648V8.05469H46.2305C45.8659 8.05469 45.5599 7.92448 45.3125 7.66406C45.0521 7.41667 44.9219 7.11068 44.9219 6.74609ZM65.2734 12.8984C65.2734 13.0443 65.2214 13.1667 65.1172 13.2656C65.0182 13.3698 64.8958 13.4219 64.75 13.4219H61.625C61.526 13.4271 61.4427 13.4505 61.375 13.4922C61.3125 13.5286 61.2656 13.5729 61.2344 13.625C61.2031 13.6719 61.1875 13.7214 61.1875 13.7734C61.1875 13.8255 61.2031 13.8776 61.2344 13.9297C61.2656 13.9766 61.3125 14.0208 61.375 14.0625C61.4427 14.099 61.526 14.1198 61.625 14.125H63.8438C64.2083 14.1354 64.5078 14.2214 64.7422 14.3828C64.9818 14.5391 65.151 14.7214 65.25 14.9297C65.3542 15.1328 65.4062 15.3411 65.4062 15.5547C65.4062 15.763 65.3542 15.9714 65.25 16.1797C65.1458 16.3828 64.9766 16.5651 64.7422 16.7266C64.5078 16.8828 64.2083 16.9609 63.8438 16.9609H63.7969C63.7656 16.9661 63.7344 16.9688 63.7031 16.9688H60.75C60.6042 16.9688 60.4792 16.9193 60.375 16.8203C60.276 16.7161 60.2266 16.5911 60.2266 16.4453C60.2266 16.2995 60.2786 16.1771 60.3828 16.0781C60.4818 15.974 60.6042 15.9219 60.75 15.9219H63.8906C63.9896 15.9271 64.0703 15.9089 64.1328 15.8672C64.2005 15.8255 64.25 15.7786 64.2812 15.7266C64.3125 15.6693 64.3281 15.612 64.3281 15.5547C64.3281 15.5182 64.3125 15.4688 64.2812 15.4062C64.25 15.3385 64.2005 15.2839 64.1328 15.2422C64.0703 15.2005 63.9896 15.1771 63.8906 15.1719H61.6719C61.3073 15.1615 61.0052 15.0781 60.7656 14.9219C60.5312 14.7656 60.362 14.5885 60.2578 14.3906C60.1589 14.1875 60.1094 13.9818 60.1094 13.7734C60.1094 13.5703 60.1615 13.3698 60.2656 13.1719C60.3698 12.9688 60.5391 12.7891 60.7734 12.6328C61.0078 12.4766 61.3073 12.3932 61.6719 12.3828H61.7188C61.75 12.3776 61.7812 12.375 61.8125 12.375H64.75C64.8958 12.375 65.0182 12.4271 65.1172 12.5312C65.2214 12.6302 65.2734 12.7526 65.2734 12.8984ZM67.3359 16.5703C67.3047 16.8828 67.1328 17.0521 66.8203 17.0781C66.6745 17.0781 66.5469 17.0312 66.4375 16.9375C66.3333 16.8385 66.2812 16.7161 66.2812 16.5703V12.8828C66.2865 12.737 66.3411 12.6172 66.4453 12.5234C66.5495 12.4245 66.6745 12.375 66.8203 12.375H70.1016C70.5599 12.3906 70.9062 12.4922 71.1406 12.6797C71.375 12.862 71.5443 13.0703 71.6484 13.3047C71.7526 13.5391 71.8047 13.776 71.8047 14.0156C71.8047 14.2656 71.7526 14.5078 71.6484 14.7422C71.5495 14.9766 71.3802 15.1875 71.1406 15.375C70.9062 15.5573 70.6068 15.6458 70.2422 15.6406H68.2734C68.1276 15.6406 68.0052 15.5885 67.9062 15.4844C67.8021 15.3854 67.75 15.263 67.75 15.1172C67.75 14.9714 67.7995 14.849 67.8984 14.75C68.0026 14.6458 68.1276 14.5938 68.2734 14.5938H70.2891C70.388 14.5938 70.4688 14.5625 70.5312 14.5C70.599 14.4323 70.6484 14.3568 70.6797 14.2734C70.7109 14.1849 70.7266 14.0964 70.7266 14.0078C70.7266 13.9245 70.7109 13.8411 70.6797 13.7578C70.6484 13.6693 70.599 13.5938 70.5312 13.5312C70.4688 13.4635 70.388 13.4271 70.2891 13.4219H67.5391C67.4036 13.4271 67.3359 13.4948 67.3359 13.625V16.5703ZM74.3906 15.7734C74.3906 15.6276 74.4401 15.5052 74.5391 15.4062C74.6432 15.3021 74.7682 15.25 74.9141 15.25H76.1094L75.9062 14.6719C75.8229 14.4583 75.7396 14.2578 75.6562 14.0703C75.5781 13.8776 75.487 13.7031 75.3828 13.5469C75.2891 13.3906 75.1823 13.3073 75.0625 13.2969C74.9375 13.3073 74.8255 13.3906 74.7266 13.5469C74.6276 13.7031 74.5365 13.8776 74.4531 14.0703C74.375 14.2578 74.2943 14.4583 74.2109 14.6719L73.4688 16.7031C73.4167 16.8125 73.349 16.9036 73.2656 16.9766C73.1875 17.0443 73.0677 17.0781 72.9062 17.0781C72.7552 17.0781 72.6302 17.026 72.5312 16.9219C72.4375 16.8177 72.3958 16.6927 72.4062 16.5469C72.4115 16.4792 72.4271 16.4167 72.4531 16.3594L73.3125 14.1406C73.5521 13.5573 73.7917 13.0859 74.0312 12.7266C74.2656 12.3724 74.6094 12.1927 75.0625 12.1875C75.5104 12.1927 75.8516 12.3724 76.0859 12.7266C76.3255 13.0755 76.5651 13.5469 76.8047 14.1406L77.6641 16.3594C77.6901 16.4167 77.7057 16.4792 77.7109 16.5469C77.7214 16.6927 77.6771 16.8177 77.5781 16.9219C77.4844 17.026 77.362 17.0781 77.2109 17.0781C77.0391 17.0781 76.9115 17.0443 76.8281 16.9766C76.75 16.9036 76.6849 16.8125 76.6328 16.7031L76.4844 16.2969H74.9141C74.7682 16.2969 74.6458 16.2448 74.5469 16.1406C74.4427 16.0417 74.3906 15.9193 74.3906 15.7734ZM80.2734 13.4219C80.0755 13.4323 79.9089 13.5078 79.7734 13.6484C79.6432 13.7891 79.5495 13.9505 79.4922 14.1328C79.4349 14.3099 79.4062 14.4922 79.4062 14.6797C79.4062 14.8672 79.4323 15.0521 79.4844 15.2344C79.5417 15.4167 79.638 15.5781 79.7734 15.7188C79.9089 15.8542 80.0755 15.9271 80.2734 15.9375H82.8516C83.1797 15.9688 83.3594 16.1484 83.3906 16.4766C83.3854 16.6224 83.3307 16.7448 83.2266 16.8438C83.1224 16.9375 82.9974 16.9844 82.8516 16.9844H80.3594H80C79.6354 16.9635 79.3359 16.8255 79.1016 16.5703C78.8672 16.3099 78.6979 16.0156 78.5938 15.6875C78.4948 15.3594 78.4453 15.0234 78.4453 14.6797C78.4453 14.4245 78.474 14.1719 78.5312 13.9219C78.5885 13.6719 78.6771 13.4349 78.7969 13.2109C78.9219 12.9818 79.0859 12.7865 79.2891 12.625C79.4974 12.4635 79.7344 12.3802 80 12.375H80.1484H82.8516C83.1797 12.4062 83.3594 12.5859 83.3906 12.9141C83.3906 13.0599 83.3359 13.1823 83.2266 13.2812C83.1224 13.375 82.9974 13.4219 82.8516 13.4219H80.2734ZM85.5625 12.375H85.9219H88.5781C88.724 12.3802 88.8438 12.4349 88.9375 12.5391C89.0365 12.6432 89.0859 12.7682 89.0859 12.9141C89.0599 13.2266 88.8906 13.3958 88.5781 13.4219H85.8281C85.6302 13.4323 85.4661 13.5078 85.3359 13.6484C85.2057 13.7891 85.1094 13.9505 85.0469 14.1328C84.9896 14.3099 84.9609 14.4922 84.9609 14.6797C84.9609 14.8672 84.9896 15.0521 85.0469 15.2344C85.1094 15.4115 85.2057 15.5703 85.3359 15.7109C85.4661 15.8516 85.6302 15.9271 85.8281 15.9375H88.5781C88.724 15.9427 88.8438 15.9974 88.9375 16.1016C89.0365 16.2057 89.0859 16.3307 89.0859 16.4766C89.0807 16.6172 89.0286 16.737 88.9297 16.8359C88.8359 16.9297 88.7188 16.9792 88.5781 16.9844H85.7109H85.5625C85.1979 16.9635 84.8958 16.8255 84.6562 16.5703C84.4219 16.3099 84.2526 16.0156 84.1484 15.6875C84.0495 15.3594 84 15.0234 84 14.6797C84 14.3359 84.0521 14 84.1562 13.6719C84.2604 13.3438 84.4297 13.0521 84.6641 12.7969C84.8984 12.5365 85.1979 12.3958 85.5625 12.375ZM89.0703 14.6484C89.0703 14.7943 89.0182 14.9167 88.9141 15.0156C88.8151 15.1198 88.6927 15.1719 88.5469 15.1719H86.1875C86.0417 15.1719 85.9167 15.1224 85.8125 15.0234C85.7135 14.9193 85.6641 14.7943 85.6641 14.6484C85.6641 14.5026 85.7135 14.3776 85.8125 14.2734C85.9167 14.1745 86.0417 14.125 86.1875 14.125H88.5469C88.6927 14.125 88.8151 14.1771 88.9141 14.2812C89.0182 14.3802 89.0703 14.5026 89.0703 14.6484Z" fill="#367CFF"/>
<path d="M0.664 27V21.4H3.208C3.816 21.4 4.352 21.5173 4.816 21.752C5.28 21.9813 5.64267 22.304 5.904 22.72C6.16533 23.136 6.296 23.6293 6.296 24.2C6.296 24.7653 6.16533 25.2587 5.904 25.68C5.64267 26.096 5.28 26.4213 4.816 26.656C4.352 26.8853 3.816 27 3.208 27H0.664ZM1.96 25.936H3.144C3.51733 25.936 3.84 25.8667 4.112 25.728C4.38933 25.584 4.60267 25.3813 4.752 25.12C4.90667 24.8587 4.984 24.552 4.984 24.2C4.984 23.8427 4.90667 23.536 4.752 23.28C4.60267 23.0187 4.38933 22.8187 4.112 22.68C3.84 22.536 3.51733 22.464 3.144 22.464H1.96V25.936ZM7.95925 27L10.4553 21.4H11.7353L14.2393 27H12.8793L10.8313 22.056H11.3433L9.28725 27H7.95925ZM9.20725 25.8L9.55125 24.816H12.4313L12.7833 25.8H9.20725ZM16.3203 27V21.4H18.7443C19.2456 21.4 19.6776 21.4827 20.0403 21.648C20.4029 21.808 20.6829 22.04 20.8803 22.344C21.0776 22.648 21.1763 23.0107 21.1763 23.432C21.1763 23.848 21.0776 24.208 20.8803 24.512C20.6829 24.816 20.4029 25.0507 20.0403 25.216C19.6776 25.376 19.2456 25.456 18.7443 25.456H17.0403L17.6163 24.872V27H16.3203ZM17.6163 25.016L17.0403 24.4H18.6723C19.0723 24.4 19.3709 24.3147 19.5683 24.144C19.7656 23.9733 19.8643 23.736 19.8643 23.432C19.8643 23.1227 19.7656 22.8827 19.5683 22.712C19.3709 22.5413 19.0723 22.456 18.6723 22.456H17.0403L17.6163 21.84V25.016ZM23.6015 27V21.4H26.0255C26.5268 21.4 26.9588 21.4827 27.3215 21.648C27.6842 21.808 27.9642 22.04 28.1615 22.344C28.3588 22.648 28.4575 23.0107 28.4575 23.432C28.4575 23.848 28.3588 24.208 28.1615 24.512C27.9642 24.816 27.6842 25.0507 27.3215 25.216C26.9588 25.376 26.5268 25.456 26.0255 25.456H24.3215L24.8975 24.872V27H23.6015ZM24.8975 25.016L24.3215 24.4H25.9535C26.3535 24.4 26.6522 24.3147 26.8495 24.144C27.0468 23.9733 27.1455 23.736 27.1455 23.432C27.1455 23.1227 27.0468 22.8827 26.8495 22.712C26.6522 22.5413 26.3535 22.456 25.9535 22.456H24.3215L24.8975 21.84V25.016ZM35.8865 27V22.456H34.0945V21.4H38.9745V22.456H37.1825V27H35.8865ZM42.3638 23.656H45.0598V24.664H42.3638V23.656ZM42.4598 25.96H45.5078V27H41.1718V21.4H45.4038V22.44H42.4598V25.96ZM48.039 27V21.4H49.111L51.495 25.352H50.927L53.271 21.4H54.335L54.351 27H53.135L53.127 23.264H53.351L51.479 26.408H50.895L48.983 23.264H49.255V27H48.039ZM57.1796 27V21.4H59.6036C60.105 21.4 60.537 21.4827 60.8996 21.648C61.2623 21.808 61.5423 22.04 61.7396 22.344C61.937 22.648 62.0356 23.0107 62.0356 23.432C62.0356 23.848 61.937 24.208 61.7396 24.512C61.5423 24.816 61.2623 25.0507 60.8996 25.216C60.537 25.376 60.105 25.456 59.6036 25.456H57.8996L58.4756 24.872V27H57.1796ZM58.4756 25.016L57.8996 24.4H59.5316C59.9316 24.4 60.2303 24.3147 60.4276 24.144C60.625 23.9733 60.7236 23.736 60.7236 23.432C60.7236 23.1227 60.625 22.8827 60.4276 22.712C60.2303 22.5413 59.9316 22.456 59.5316 22.456H57.8996L58.4756 21.84V25.016ZM64.4609 27V21.4H65.7569V25.944H68.5649V27H64.4609ZM70.0842 27L72.5803 21.4H73.8603L76.3643 27H75.0043L72.9563 22.056H73.4683L71.4123 27H70.0842ZM71.3322 25.8L71.6763 24.816H74.5563L74.9083 25.8H71.3322ZM79.324 27V22.456H77.532V21.4H82.412V22.456H80.62V27H79.324ZM85.8013 23.656H88.4973V24.664H85.8013V23.656ZM85.8973 25.96H88.9453V27H84.6093V21.4H88.8413V22.44H85.8973V25.96Z" fill="white"/>
</g>
<defs>
<clipPath id="clip0_3_2634">
<rect width="90" height="28" fill="white"/>
</clipPath>
</defs>
</svg>
